<?xml version='1.0' encoding='utf-8'?>
<mlt title="Anonymous Submission" producer="main bin" LC_NUMERIC="en_US.UTF-8" root="/home/xenial" version="6.0.0">
 <profile progressive="1" frame_rate_num="30" colorspace="709" sample_aspect_num="1" height="720" sample_aspect_den="1" display_aspect_num="16" width="1280" display_aspect_den="9" frame_rate_den="1" description="HD 720p 30 fps"/>
 <producer id="1" out="1311" in="0">
  <property name="mlt_type">producer</property>
  <property name="length">00:00:43:22</property>
  <property name="eof">pause</property>
  <property name="resource">/var/www/localhost/image-grid.ou-snippet/docs/videos/upload/raw/screencast.mp4</property>
  <property name="meta.media.nb_streams">1</property>
  <property name="meta.media.0.stream.type">video</property>
  <property name="meta.media.0.stream.frame_rate">15</property>
  <property name="meta.media.0.stream.sample_aspect_ratio">0</property>
  <property name="meta.media.0.codec.width">1918</property>
  <property name="meta.media.0.codec.height">1056</property>
  <property name="meta.media.0.codec.rotate">0</property>
  <property name="meta.media.0.codec.frame_rate">15</property>
  <property name="meta.media.0.codec.pix_fmt">yuv444p</property>
  <property name="meta.media.0.codec.sample_aspect_ratio">1</property>
  <property name="meta.media.0.codec.colorspace">709</property>
  <property name="meta.media.0.codec.name">h264</property>
  <property name="meta.media.0.codec.long_name">H.264 / AVC / MPEG-4 AVC / MPEG-4 part 10</property>
  <property name="meta.media.0.codec.bit_rate">988558</property>
  <property name="meta.attr.0.stream.creation_time.markup">2016-08-02 16:34:07</property>
  <property name="meta.attr.0.stream.language.markup">eng</property>
  <property name="meta.attr.0.stream.handler_name.markup">VideoHandler</property>
  <property name="meta.attr.major_brand.markup">mp42</property>
  <property name="meta.attr.minor_version.markup">0</property>
  <property name="meta.attr.compatible_brands.markup">mp42mp41isomiso2</property>
  <property name="meta.attr.creation_time.markup">2016-08-02 16:34:07</property>
  <property name="meta.attr.encoder.markup">x264</property>
  <property name="seekable">1</property>
  <property name="meta.media.sample_aspect_num">1</property>
  <property name="meta.media.sample_aspect_den">1</property>
  <property name="aspect_ratio">1</property>
  <property name="audio_index">-1</property>
  <property name="video_index">0</property>
  <property name="mute_on_pause">1</property>
  <property name="mlt_service">avformat-novalidate</property>
  <property name="kdenlive:folderid">5</property>
  <property name="meta.media.frame_rate_num">15</property>
  <property name="meta.media.frame_rate_den">1</property>
  <property name="meta.media.colorspace">709</property>
  <property name="meta.media.color_trc">2</property>
  <property name="meta.media.width">1918</property>
  <property name="meta.media.height">1056</property>
  <property name="meta.media.top_field_first">0</property>
  <property name="meta.media.progressive">1</property>
  <property name="kdenlive:file_size">5410225</property>
  <property name="kdenlive:file_hash">aa0b90a99c3dacfa0d85ae86fc4100e1</property>
 </producer>
 <producer id="2" out="498" title="Anonymous Submission" in="0">
  <property name="mlt_type">mlt_producer</property>
  <property name="length">00:00:16:19</property>
  <property name="eof">pause</property>
  <property name="resource">/var/www/localhost/image-grid.ou-snippet/docs/videos/upload/audio/1.download.ogg</property>
  <property name="meta.media.nb_streams">1</property>
  <property name="meta.media.0.stream.type">audio</property>
  <property name="meta.media.0.codec.sample_fmt">fltp</property>
  <property name="meta.media.0.codec.sample_rate">44100</property>
  <property name="meta.media.0.codec.channels">2</property>
  <property name="meta.media.0.codec.name">vorbis</property>
  <property name="meta.media.0.codec.long_name">Vorbis</property>
  <property name="meta.media.0.codec.bit_rate">160000</property>
  <property name="seekable">1</property>
  <property name="audio_index">0</property>
  <property name="video_index">-1</property>
  <property name="mute_on_pause">1</property>
  <property name="mlt_service">avformat-novalidate</property>
  <property name="kdenlive:folderid">4</property>
  <property name="kdenlive:file_size">254896</property>
  <property name="kdenlive:file_hash">482b6e79daf9344532a19a544eeabbf5</property>
  <property name="global_feed">1</property>
 </producer>
 <producer id="3" out="149" title="Anonymous Submission" in="0">
  <property name="mlt_type">mlt_producer</property>
  <property name="length">00:00:26:19</property>
  <property name="eof">pause</property>
  <property name="resource"/>
  <property name="progressive">1</property>
  <property name="aspect_ratio">1</property>
  <property name="seekable">1</property>
  <property name="mlt_service">kdenlivetitle</property>
  <property name="kdenlive:clipname">Title clip</property>
  <property name="kdenlive:folderid">2</property>
  <property name="xmldata">&lt;kdenlivetitle duration="150" out="150" height="720" LC_NUMERIC="en_US.UTF-8" width="1280">
 &lt;item z-index="1" type="QGraphicsTextItem">
  &lt;position x="5.83079" y="627.602">
   &lt;transform>1,0,0,0,1,0,0,0,1&lt;/transform>
  &lt;/position>
  &lt;content font-weight="50" font-outline="2.5" font-pixel-size="60" font-italic="0" font-underline="0" font-outline-color="255,255,255,255" font="Ubuntu" font-color="115,15,21,255">1: Download&lt;/content>
 &lt;/item>
 &lt;item z-index="0" type="QGraphicsRectItem">
  &lt;position x="6.47605" y="616.304">
   &lt;transform zoom="100">1,0,0,0,1,0,0,0,1&lt;/transform>
  &lt;/position>
  &lt;content penwidth="0" pencolor="0,0,0,255" rect="0,0,349.707,98.2201" brushcolor="255,255,255,255"/>
 &lt;/item>
 &lt;startviewport rect="0,0,1280,720"/>
 &lt;endviewport rect="0,0,1280,720"/>
 &lt;background color="0,0,0,0"/>
&lt;/kdenlivetitle>
</property>
  <property name="force_reload">0</property>
  <property name="meta.media.width">1280</property>
  <property name="meta.media.height">720</property>
  <property name="kdenlive:file_hash">586c58d28db2f7afc3d3a3a30013c1c0</property>
  <property name="global_feed">1</property>
 </producer>
 <producer id="4" out="1049" title="Anonymous Submission" in="0">
  <property name="mlt_type">mlt_producer</property>
  <property name="length">1050</property>
  <property name="eof">pause</property>
  <property name="resource"/>
  <property name="progressive">1</property>
  <property name="aspect_ratio">1</property>
  <property name="seekable">1</property>
  <property name="mlt_service">kdenlivetitle</property>
  <property name="kdenlive:clipname">Title clip</property>
  <property name="kdenlive:folderid">2</property>
  <property name="xmldata">&lt;kdenlivetitle duration="150" out="150" height="720" LC_NUMERIC="en_US.UTF-8" width="1280">
 &lt;item z-index="1" type="QGraphicsTextItem">
  &lt;position x="258.833" y="633.962">
   &lt;transform>1,0,0,0,1,0,0,0,1&lt;/transform>
  &lt;/position>
  &lt;content font-weight="50" font-outline="2.5" font-pixel-size="60" font-italic="0" font-underline="0" font-outline-color="255,255,255,255" font="Ubuntu" font-color="115,15,21,255">2: Upload&lt;/content>
 &lt;/item>
 &lt;item z-index="0" type="QGraphicsRectItem">
  &lt;position x="249.328" y="630.335">
   &lt;transform zoom="100">1,0,0,0,1,0,0,0,1&lt;/transform>
  &lt;/position>
  &lt;content penwidth="0" pencolor="0,0,0,255" rect="0,0,283.867,86.3473" brushcolor="255,255,255,255"/>
 &lt;/item>
 &lt;startviewport rect="0,0,1280,720"/>
 &lt;endviewport rect="0,0,1280,720"/>
 &lt;background color="0,0,0,0"/>
&lt;/kdenlivetitle>
</property>
  <property name="force_reload">0</property>
  <property name="meta.media.width">1280</property>
  <property name="meta.media.height">720</property>
  <property name="kdenlive:file_hash">38808dc45d5b7bf173cf908bbc172e8c</property>
  <property name="global_feed">1</property>
 </producer>
 <producer id="5" out="348" title="Anonymous Submission" in="0">
  <property name="mlt_type">mlt_producer</property>
  <property name="length">349</property>
  <property name="eof">pause</property>
  <property name="resource"/>
  <property name="progressive">1</property>
  <property name="aspect_ratio">1</property>
  <property name="seekable">1</property>
  <property name="mlt_service">kdenlivetitle</property>
  <property name="kdenlive:clipname">Title clip</property>
  <property name="kdenlive:folderid">2</property>
  <property name="xmldata">&lt;kdenlivetitle duration="150" out="150" height="720" LC_NUMERIC="en_US.UTF-8" width="1280">
 &lt;item z-index="1" type="QGraphicsTextItem">
  &lt;position x="683.109" y="633.772">
   &lt;transform>1,0,0,0,1,0,0,0,1&lt;/transform>
  &lt;/position>
  &lt;content font-weight="50" font-outline="2.5" font-pixel-size="60" font-italic="0" font-underline="0" font-outline-color="255,255,255,255" font="Ubuntu" font-color="115,15,21,255">3: Rename&lt;/content>
 &lt;/item>
 &lt;item z-index="0" type="QGraphicsRectItem">
  &lt;position x="673.509" y="634.653">
   &lt;transform zoom="100">1,0,0,0,1,0,0,0,1&lt;/transform>
  &lt;/position>
  &lt;content penwidth="0" pencolor="0,0,0,255" rect="0,0,310.85,76.6332" brushcolor="255,255,255,255"/>
 &lt;/item>
 &lt;startviewport rect="0,0,1280,720"/>
 &lt;endviewport rect="0,0,1280,720"/>
 &lt;background color="0,0,0,0"/>
&lt;/kdenlivetitle>
</property>
  <property name="force_reload">0</property>
  <property name="meta.media.width">1280</property>
  <property name="meta.media.height">720</property>
  <property name="kdenlive:file_hash">cb3c36ef36d70c6d634423874bdfbc96</property>
  <property name="global_feed">1</property>
 </producer>
 <producer id="6" out="901" title="Anonymous Submission" in="0">
  <property name="mlt_type">mlt_producer</property>
  <property name="length">902</property>
  <property name="eof">pause</property>
  <property name="resource"/>
  <property name="progressive">1</property>
  <property name="aspect_ratio">1</property>
  <property name="seekable">1</property>
  <property name="mlt_service">kdenlivetitle</property>
  <property name="kdenlive:clipname">Title clip</property>
  <property name="kdenlive:folderid">2</property>
  <property name="xmldata">&lt;kdenlivetitle duration="150" out="150" height="720" LC_NUMERIC="en_US.UTF-8" width="1280">
 &lt;item z-index="1" type="QGraphicsTextItem">
  &lt;position x="992.079" y="627.296">
   &lt;transform>1,0,0,0,1,0,0,0,1&lt;/transform>
  &lt;/position>
  &lt;content font-weight="50" font-outline="2.5" font-pixel-size="60" font-italic="0" font-underline="0" font-outline-color="255,255,255,255" font="Ubuntu" font-color="115,15,21,255">4: Publish&lt;/content>
 &lt;/item>
 &lt;item z-index="0" type="QGraphicsRectItem">
  &lt;position x="988.677" y="628.177">
   &lt;transform zoom="100">1,0,0,0,1,0,0,0,1&lt;/transform>
  &lt;/position>
  &lt;content penwidth="0" pencolor="0,0,0,255" rect="0,0,280.629,83.1093" brushcolor="255,255,255,255"/>
 &lt;/item>
 &lt;startviewport rect="0,0,1280,720"/>
 &lt;endviewport rect="0,0,1280,720"/>
 &lt;background color="0,0,0,0"/>
&lt;/kdenlivetitle>
</property>
  <property name="force_reload">0</property>
  <property name="meta.media.width">1280</property>
  <property name="meta.media.height">720</property>
  <property name="kdenlive:file_hash">7e1d4346c8923be8f07d1e7c0ea470c5</property>
  <property name="global_feed">1</property>
 </producer>
 <producer id="7" out="883" title="Anonymous Submission" in="0">
  <property name="mlt_type">mlt_producer</property>
  <property name="length">00:00:29:14</property>
  <property name="eof">pause</property>
  <property name="resource">/var/www/localhost/image-grid.ou-snippet/docs/videos/upload/audio/2.upload.ogg</property>
  <property name="meta.media.nb_streams">1</property>
  <property name="meta.media.0.stream.type">audio</property>
  <property name="meta.media.0.codec.sample_fmt">fltp</property>
  <property name="meta.media.0.codec.sample_rate">44100</property>
  <property name="meta.media.0.codec.channels">2</property>
  <property name="meta.media.0.codec.name">vorbis</property>
  <property name="meta.media.0.codec.long_name">Vorbis</property>
  <property name="meta.media.0.codec.bit_rate">160000</property>
  <property name="seekable">1</property>
  <property name="audio_index">0</property>
  <property name="video_index">-1</property>
  <property name="mute_on_pause">1</property>
  <property name="mlt_service">avformat-novalidate</property>
  <property name="kdenlive:folderid">4</property>
  <property name="kdenlive:file_size">443835</property>
  <property name="kdenlive:file_hash">aac9bb5af5e172e705fd9840b9d4242d</property>
  <property name="global_feed">1</property>
 </producer>
 <producer id="8" out="797" title="Anonymous Submission" in="0">
  <property name="mlt_type">mlt_producer</property>
  <property name="length">00:00:26:18</property>
  <property name="eof">pause</property>
  <property name="resource">/var/www/localhost/image-grid.ou-snippet/docs/videos/upload/audio/3.rename.ogg</property>
  <property name="meta.media.nb_streams">1</property>
  <property name="meta.media.0.stream.type">audio</property>
  <property name="meta.media.0.codec.sample_fmt">fltp</property>
  <property name="meta.media.0.codec.sample_rate">44100</property>
  <property name="meta.media.0.codec.channels">2</property>
  <property name="meta.media.0.codec.name">vorbis</property>
  <property name="meta.media.0.codec.long_name">Vorbis</property>
  <property name="meta.media.0.codec.bit_rate">160000</property>
  <property name="seekable">1</property>
  <property name="audio_index">0</property>
  <property name="video_index">-1</property>
  <property name="mute_on_pause">1</property>
  <property name="mlt_service">avformat-novalidate</property>
  <property name="kdenlive:folderid">4</property>
  <property name="kdenlive:file_size">394239</property>
  <property name="kdenlive:file_hash">3bade3cc8b0280284487b296240ee0ee</property>
  <property name="global_feed">1</property>
 </producer>
 <producer id="9" out="900" title="Anonymous Submission" in="0">
  <property name="mlt_type">mlt_producer</property>
  <property name="length">00:00:30:01</property>
  <property name="eof">pause</property>
  <property name="resource">/var/www/localhost/image-grid.ou-snippet/docs/videos/upload/audio/4.publish.ogg</property>
  <property name="meta.media.nb_streams">1</property>
  <property name="meta.media.0.stream.type">audio</property>
  <property name="meta.media.0.codec.sample_fmt">fltp</property>
  <property name="meta.media.0.codec.sample_rate">44100</property>
  <property name="meta.media.0.codec.channels">2</property>
  <property name="meta.media.0.codec.name">vorbis</property>
  <property name="meta.media.0.codec.long_name">Vorbis</property>
  <property name="meta.media.0.codec.bit_rate">160000</property>
  <property name="seekable">1</property>
  <property name="audio_index">0</property>
  <property name="video_index">-1</property>
  <property name="mute_on_pause">1</property>
  <property name="mlt_service">avformat-novalidate</property>
  <property name="kdenlive:folderid">4</property>
  <property name="kdenlive:file_size">450643</property>
  <property name="kdenlive:file_hash">d861ba86e92f5f6d8a5882df02a11f82</property>
  <property name="global_feed">1</property>
 </producer>
 <playlist id="main bin" kdenlive:customeffects="&lt;customeffects/>&#xa;">
  <property name="kdenlive:folder.-1.1">upload</property>
  <property name="kdenlive:docproperties.documentid">1470253671894</property>
  <property name="kdenlive:docproperties.enableproxy">0</property>
  <property name="kdenlive:docproperties.generateimageproxy">0</property>
  <property name="kdenlive:docproperties.generateproxy">0</property>
  <property name="kdenlive:docproperties.kdenliveversion">15.12.3</property>
  <property name="kdenlive:docproperties.position">2861</property>
  <property name="kdenlive:docproperties.profile">atsc_720p_30</property>
  <property name="kdenlive:docproperties.projectfolder">kdenlive</property>
  <property name="kdenlive:docproperties.proxyextension">mpg</property>
  <property name="kdenlive:docproperties.proxyimageminsize">2000</property>
  <property name="kdenlive:docproperties.proxyminsize">1000</property>
  <property name="kdenlive:docproperties.proxyparams">-s 640x480 -g 5 -qscale 6 -ab 128k -vcodec mpeg2video -acodec mp2</property>
  <property name="kdenlive:docproperties.version">0.91</property>
  <property name="kdenlive:docproperties.verticalzoom">1</property>
  <property name="kdenlive:docproperties.zonein">0</property>
  <property name="kdenlive:docproperties.zoneout">499</property>
  <property name="kdenlive:docproperties.zoom">6</property>
  <property name="kdenlive:documentnotes"/>
  <property name="kdenlive:clipgroups">&lt;groups/>
</property>
  <property name="kdenlive:docproperties.renderaudiobitrate">160</property>
  <property name="kdenlive:docproperties.renderbitrate">20</property>
  <property name="kdenlive:docproperties.rendercategory">MP4</property>
  <property name="kdenlive:docproperties.renderendguide">-1</property>
  <property name="kdenlive:docproperties.renderexportaudio">0</property>
  <property name="kdenlive:docproperties.renderguide">0</property>
  <property name="kdenlive:docproperties.renderplay">0</property>
  <property name="kdenlive:docproperties.renderprofile">H.264/AAC fast</property>
  <property name="kdenlive:docproperties.renderratio">1</property>
  <property name="kdenlive:docproperties.renderrescale">0</property>
  <property name="kdenlive:docproperties.renderrescaleheight">180</property>
  <property name="kdenlive:docproperties.renderrescalewidth">320</property>
  <property name="kdenlive:docproperties.renderscanning">0</property>
  <property name="kdenlive:docproperties.renderstartguide">-1</property>
  <property name="kdenlive:docproperties.rendertcoverlay">0</property>
  <property name="kdenlive:docproperties.rendertctype">0</property>
  <property name="kdenlive:docproperties.rendertwopass">0</property>
  <property name="kdenlive:docproperties.renderurl">/var/www/localhost/image-grid.ou-snippet/docs/videos/upload/upload.mp4</property>
  <property name="kdenlive:docproperties.renderzone">0</property>
  <property name="kdenlive:folder.1.2">titles</property>
  <property name="kdenlive:folder.1.4">audio</property>
  <property name="kdenlive:folder.1.5">video</property>
  <property name="xml_retain">1</property>
  <entry out="1311" in="0" producer="1"/>
  <entry out="498" in="0" producer="2"/>
  <entry out="149" in="0" producer="3"/>
  <entry out="149" in="0" producer="4"/>
  <entry out="149" in="0" producer="5"/>
  <entry out="149" in="0" producer="6"/>
  <entry out="883" in="0" producer="7"/>
  <entry out="797" in="0" producer="8"/>
  <entry out="900" in="0" producer="9"/>
 </playlist>
 <producer id="black" out="500" in="0">
  <property name="mlt_type">producer</property>
  <property name="length">15000</property>
  <property name="eof">pause</property>
  <property name="resource">black</property>
  <property name="aspect_ratio">0</property>
  <property name="mlt_service">colour</property>
 </producer>
 <playlist id="black_track">
  <entry out="2861" in="0" producer="black"/>
 </playlist>
 <producer id="2_playlist2" out="498" title="Anonymous Submission" in="0">
  <property name="mlt_type">producer</property>
  <property name="length">00:00:16:19</property>
  <property name="eof">pause</property>
  <property name="resource">/var/www/localhost/image-grid.ou-snippet/docs/videos/upload/audio/1.download.ogg</property>
  <property name="audio_index">0</property>
  <property name="video_index">-1</property>
  <property name="mute_on_pause">1</property>
  <property name="mlt_service">avformat-novalidate</property>
  <property name="seekable">1</property>
  <property name="kdenlive:folderid">1</property>
  <property name="kdenlive:file_size">254896</property>
  <property name="kdenlive:file_hash">482b6e79daf9344532a19a544eeabbf5</property>
  <property name="global_feed">1</property>
  <property name="xml">was here</property>
  <property name="meta.media.nb_streams">1</property>
  <property name="meta.media.0.stream.type">audio</property>
  <property name="meta.media.0.codec.sample_fmt">fltp</property>
  <property name="meta.media.0.codec.sample_rate">44100</property>
  <property name="meta.media.0.codec.channels">2</property>
  <property name="meta.media.0.codec.name">vorbis</property>
  <property name="meta.media.0.codec.long_name">Vorbis</property>
  <property name="meta.media.0.codec.bit_rate">160000</property>
 </producer>
 <producer id="7_playlist2" out="883" title="Anonymous Submission" in="0">
  <property name="mlt_type">producer</property>
  <property name="length">00:00:29:14</property>
  <property name="eof">pause</property>
  <property name="resource">/var/www/localhost/image-grid.ou-snippet/docs/videos/upload/audio/2.upload.ogg</property>
  <property name="audio_index">0</property>
  <property name="video_index">-1</property>
  <property name="mute_on_pause">1</property>
  <property name="mlt_service">avformat-novalidate</property>
  <property name="seekable">1</property>
  <property name="kdenlive:folderid">4</property>
  <property name="kdenlive:file_size">443835</property>
  <property name="kdenlive:file_hash">aac9bb5af5e172e705fd9840b9d4242d</property>
  <property name="global_feed">1</property>
  <property name="xml">was here</property>
  <property name="meta.media.nb_streams">1</property>
  <property name="meta.media.0.stream.type">audio</property>
  <property name="meta.media.0.codec.sample_fmt">fltp</property>
  <property name="meta.media.0.codec.sample_rate">44100</property>
  <property name="meta.media.0.codec.channels">2</property>
  <property name="meta.media.0.codec.name">vorbis</property>
  <property name="meta.media.0.codec.long_name">Vorbis</property>
  <property name="meta.media.0.codec.bit_rate">160000</property>
 </producer>
 <producer id="8_playlist2" out="797" title="Anonymous Submission" in="0">
  <property name="mlt_type">producer</property>
  <property name="length">00:00:26:18</property>
  <property name="eof">pause</property>
  <property name="resource">/var/www/localhost/image-grid.ou-snippet/docs/videos/upload/audio/3.rename.ogg</property>
  <property name="audio_index">0</property>
  <property name="video_index">-1</property>
  <property name="mute_on_pause">1</property>
  <property name="mlt_service">avformat-novalidate</property>
  <property name="seekable">1</property>
  <property name="kdenlive:folderid">4</property>
  <property name="kdenlive:file_size">394239</property>
  <property name="kdenlive:file_hash">3bade3cc8b0280284487b296240ee0ee</property>
  <property name="global_feed">1</property>
  <property name="xml">was here</property>
  <property name="meta.media.nb_streams">1</property>
  <property name="meta.media.0.stream.type">audio</property>
  <property name="meta.media.0.codec.sample_fmt">fltp</property>
  <property name="meta.media.0.codec.sample_rate">44100</property>
  <property name="meta.media.0.codec.channels">2</property>
  <property name="meta.media.0.codec.name">vorbis</property>
  <property name="meta.media.0.codec.long_name">Vorbis</property>
  <property name="meta.media.0.codec.bit_rate">160000</property>
 </producer>
 <producer id="9_playlist2" out="900" title="Anonymous Submission" in="0">
  <property name="mlt_type">producer</property>
  <property name="length">00:00:30:01</property>
  <property name="eof">pause</property>
  <property name="resource">/var/www/localhost/image-grid.ou-snippet/docs/videos/upload/audio/4.publish.ogg</property>
  <property name="audio_index">0</property>
  <property name="video_index">-1</property>
  <property name="mute_on_pause">1</property>
  <property name="mlt_service">avformat-novalidate</property>
  <property name="seekable">1</property>
  <property name="kdenlive:folderid">4</property>
  <property name="kdenlive:file_size">450643</property>
  <property name="kdenlive:file_hash">d861ba86e92f5f6d8a5882df02a11f82</property>
  <property name="global_feed">1</property>
  <property name="xml">was here</property>
  <property name="meta.media.nb_streams">1</property>
  <property name="meta.media.0.stream.type">audio</property>
  <property name="meta.media.0.codec.sample_fmt">fltp</property>
  <property name="meta.media.0.codec.sample_rate">44100</property>
  <property name="meta.media.0.codec.channels">2</property>
  <property name="meta.media.0.codec.name">vorbis</property>
  <property name="meta.media.0.codec.long_name">Vorbis</property>
  <property name="meta.media.0.codec.bit_rate">160000</property>
 </producer>
 <playlist id="playlist2">
  <property name="kdenlive:track_name">Audio 1</property>
  <property name="kdenlive:audio_track">1</property>
  <entry out="498" in="0" producer="2_playlist2">
   <filter id="gain">
    <property name="window">75</property>
    <property name="max_gain">20dB</property>
    <property name="mlt_type">filter</property>
    <property name="mlt_service">volume</property>
    <property name="kdenlive_id">gain</property>
    <property name="tag">volume</property>
    <property name="kdenlive_ix">1</property>
    <property name="gain">10</property>
    <property name="kdenlive_info"/>
   </filter>
  </entry>
  <entry out="820" in="20" producer="7_playlist2">
   <filter id="filter0">
    <property name="window">75</property>
    <property name="max_gain">20dB</property>
    <property name="mlt_type">filter</property>
    <property name="mlt_service">volume</property>
    <property name="kdenlive_id">gain</property>
    <property name="tag">volume</property>
    <property name="kdenlive_ix">1</property>
    <property name="gain">10</property>
    <property name="kdenlive_info"/>
   </filter>
  </entry>
  <entry out="704" in="44" producer="8_playlist2">
   <filter id="filter1">
    <property name="window">75</property>
    <property name="max_gain">20dB</property>
    <property name="mlt_type">filter</property>
    <property name="mlt_service">volume</property>
    <property name="kdenlive_id">gain</property>
    <property name="tag">volume</property>
    <property name="kdenlive_ix">1</property>
    <property name="gain">10</property>
    <property name="kdenlive_info"/>
   </filter>
  </entry>
  <entry out="900" in="0" producer="9_playlist2">
   <filter id="filter2">
    <property name="window">75</property>
    <property name="max_gain">20dB</property>
    <property name="mlt_type">filter</property>
    <property name="mlt_service">volume</property>
    <property name="kdenlive_id">gain</property>
    <property name="tag">volume</property>
    <property name="kdenlive_ix">1</property>
    <property name="gain">10</property>
    <property name="kdenlive_info"/>
   </filter>
  </entry>
 </playlist>
 <playlist id="playlist4">
  <property name="kdenlive:track_name">Video 2</property>
  <property name="kdenlive:locked_track">0</property>
  <property name="kdenlive:composite">1</property>
  <entry out="264" in="0" producer="1">
   <filter id="freeze">
    <property name="frame">0</property>
    <property name="freeze_after">0</property>
    <property name="freeze_before">0</property>
    <property name="mlt_type">filter</property>
    <property name="mlt_service">freeze</property>
    <property name="kdenlive_id">freeze</property>
    <property name="tag">freeze</property>
    <property name="kdenlive_ix">1</property>
   </filter>
  </entry>
  <entry out="1034" in="0" producer="1">
   <filter id="filter3">
    <property name="frame">597</property>
    <property name="freeze_after">1</property>
    <property name="freeze_before">0</property>
    <property name="mlt_type">filter</property>
    <property name="mlt_service">freeze</property>
    <property name="kdenlive_id">freeze</property>
    <property name="tag">freeze</property>
    <property name="kdenlive_ix">1</property>
    <property name="kdenlive_info"/>
   </filter>
  </entry>
  <entry out="1016" in="600" producer="1">
   <filter id="filter4">
    <property name="frame">138</property>
    <property name="freeze_after">1</property>
    <property name="freeze_before">0</property>
    <property name="mlt_type">filter</property>
    <property name="mlt_service">freeze</property>
    <property name="kdenlive_id">freeze</property>
    <property name="tag">freeze</property>
    <property name="kdenlive_ix">1</property>
    <property name="kdenlive_info"/>
   </filter>
  </entry>
  <entry out="1311" in="749" producer="1">
   <filter id="filter5">
    <property name="frame">381</property>
    <property name="freeze_after">1</property>
    <property name="freeze_before">0</property>
    <property name="mlt_type">filter</property>
    <property name="mlt_service">freeze</property>
    <property name="kdenlive_id">freeze</property>
    <property name="tag">freeze</property>
    <property name="kdenlive_ix">1</property>
    <property name="kdenlive_info"/>
   </filter>
  </entry>
  <entry out="1311" in="730" producer="1">
   <filter id="filter6">
    <property name="frame">406</property>
    <property name="freeze_after">0</property>
    <property name="freeze_before">1</property>
    <property name="mlt_type">filter</property>
    <property name="mlt_service">freeze</property>
    <property name="kdenlive_id">freeze</property>
    <property name="tag">freeze</property>
    <property name="kdenlive_ix">1</property>
    <property name="kdenlive_info"/>
   </filter>
  </entry>
 </playlist>
 <playlist id="playlist5">
  <property name="kdenlive:track_name">Video 1</property>
  <property name="kdenlive:locked_track">0</property>
  <property name="kdenlive:composite">1</property>
  <entry out="524" in="0" producer="3"/>
  <blank length="45"/>
  <entry out="848" in="0" producer="4"/>
  <blank length="136"/>
  <entry out="347" in="0" producer="5"/>
  <blank length="58"/>
  <entry out="900" in="0" producer="6"/>
 </playlist>
 <tractor id="maintractor" out="2861" title="Anonymous Submission" global_feed="1" in="0">
  <track producer="black_track"/>
  <track hide="video" producer="playlist2"/>
  <track producer="playlist4"/>
  <track producer="playlist5"/>
  <transition id="transition0">
   <property name="a_track">0</property>
   <property name="b_track">1</property>
   <property name="mlt_type">transition</property>
   <property name="mlt_service">mix</property>
   <property name="always_active">1</property>
   <property name="combine">1</property>
   <property name="internal_added">237</property>
  </transition>
  <transition id="transition1">
   <property name="a_track">0</property>
   <property name="b_track">2</property>
   <property name="mlt_type">transition</property>
   <property name="mlt_service">mix</property>
   <property name="always_active">1</property>
   <property name="combine">1</property>
   <property name="internal_added">237</property>
  </transition>
  <transition id="transition2">
   <property name="a_track">0</property>
   <property name="b_track">3</property>
   <property name="mlt_type">transition</property>
   <property name="mlt_service">mix</property>
   <property name="always_active">1</property>
   <property name="combine">1</property>
   <property name="internal_added">237</property>
  </transition>
  <transition id="transition3" out="524">
   <property name="a_track">2</property>
   <property name="b_track">3</property>
   <property name="distort">0</property>
   <property name="geometry">0/0:100%x100%:100%</property>
   <property name="fill">1</property>
   <property name="mlt_type">transition</property>
   <property name="mlt_service">affine</property>
   <property name="automatic">1</property>
   <property name="force_track">0</property>
   <property name="keyed">1</property>
   <property name="rotate_x">0</property>
   <property name="rotate_y">0</property>
   <property name="rotate_z">0</property>
   <property name="shear_x">0</property>
   <property name="shear_y">0</property>
   <property name="shear_z">0</property>
  </transition>
  <transition id="transition4" out="1418" in="570">
   <property name="a_track">2</property>
   <property name="b_track">3</property>
   <property name="distort">0</property>
   <property name="geometry">0/0:100%x100%:100%</property>
   <property name="fill">1</property>
   <property name="mlt_type">transition</property>
   <property name="mlt_service">affine</property>
   <property name="automatic">1</property>
   <property name="force_track">0</property>
   <property name="keyed">1</property>
   <property name="rotate_x">0</property>
   <property name="rotate_y">0</property>
   <property name="rotate_z">0</property>
   <property name="shear_x">0</property>
   <property name="shear_y">0</property>
   <property name="shear_z">0</property>
  </transition>
  <transition id="transition5" out="1902" in="1555">
   <property name="a_track">2</property>
   <property name="b_track">3</property>
   <property name="distort">0</property>
   <property name="geometry">0/0:100%x100%:100%</property>
   <property name="fill">1</property>
   <property name="mlt_type">transition</property>
   <property name="mlt_service">affine</property>
   <property name="automatic">1</property>
   <property name="force_track">0</property>
   <property name="keyed">1</property>
   <property name="rotate_x">0</property>
   <property name="rotate_y">0</property>
   <property name="rotate_z">0</property>
   <property name="shear_x">0</property>
   <property name="shear_y">0</property>
   <property name="shear_z">0</property>
  </transition>
  <transition id="transition6" out="2861" in="1961">
   <property name="a_track">2</property>
   <property name="b_track">3</property>
   <property name="distort">0</property>
   <property name="geometry">0/0:100%x100%:100%</property>
   <property name="fill">1</property>
   <property name="mlt_type">transition</property>
   <property name="mlt_service">affine</property>
   <property name="automatic">1</property>
   <property name="force_track">0</property>
   <property name="keyed">1</property>
   <property name="rotate_x">0</property>
   <property name="rotate_y">0</property>
   <property name="rotate_z">0</property>
   <property name="shear_x">0</property>
   <property name="shear_y">0</property>
   <property name="shear_z">0</property>
  </transition>
  <transition id="transition7">
   <property name="a_track">1</property>
   <property name="b_track">2</property>
   <property name="version">0.9</property>
   <property name="mlt_type">transition</property>
   <property name="mlt_service">frei0r.cairoblend</property>
   <property name="internal_added">237</property>
  </transition>
  <transition id="transition8">
   <property name="a_track">2</property>
   <property name="b_track">3</property>
   <property name="version">0.9</property>
   <property name="mlt_type">transition</property>
   <property name="mlt_service">frei0r.cairoblend</property>
   <property name="internal_added">237</property>
  </transition>
 </tractor>
</mlt>
