<?xml version='1.0' encoding='utf-8'?>
<mlt version="6.0.0" title="Anonymous Submission" root="/home/xenial" producer="main bin" LC_NUMERIC="en_US.UTF-8">
 <profile height="720" description="HD 720p 30 fps" display_aspect_num="16" frame_rate_num="30" sample_aspect_num="1" sample_aspect_den="1" progressive="1" display_aspect_den="9" frame_rate_den="1" colorspace="709" width="1280"/>
 <producer out="498" title="Anonymous Submission" id="1" in="0">
  <property name="mlt_type">mlt_producer</property>
  <property name="length">00:00:16:19</property>
  <property name="eof">pause</property>
  <property name="resource">/var/www/localhost/image-grid.ou-snippet/docs/videos/add/audio/1.row.ogg</property>
  <property name="meta.media.nb_streams">1</property>
  <property name="meta.media.0.stream.type">audio</property>
  <property name="meta.media.0.codec.sample_fmt">fltp</property>
  <property name="meta.media.0.codec.sample_rate">44100</property>
  <property name="meta.media.0.codec.channels">2</property>
  <property name="meta.media.0.codec.name">vorbis</property>
  <property name="meta.media.0.codec.long_name">Vorbis</property>
  <property name="meta.media.0.codec.bit_rate">160000</property>
  <property name="seekable">1</property>
  <property name="audio_index">0</property>
  <property name="video_index">-1</property>
  <property name="mute_on_pause">1</property>
  <property name="mlt_service">avformat-novalidate</property>
  <property name="kdenlive:folderid">2</property>
  <property name="kdenlive:file_size">258109</property>
  <property name="kdenlive:file_hash">232886c9110de4ad8e20921ecf5d7d15</property>
  <property name="global_feed">1</property>
 </producer>
 <producer out="637" title="Anonymous Submission" id="2" in="0">
  <property name="mlt_type">mlt_producer</property>
  <property name="length">00:00:21:08</property>
  <property name="eof">pause</property>
  <property name="resource">/var/www/localhost/image-grid.ou-snippet/docs/videos/add/audio/2.image.ogg</property>
  <property name="meta.media.nb_streams">1</property>
  <property name="meta.media.0.stream.type">audio</property>
  <property name="meta.media.0.codec.sample_fmt">fltp</property>
  <property name="meta.media.0.codec.sample_rate">44100</property>
  <property name="meta.media.0.codec.channels">2</property>
  <property name="meta.media.0.codec.name">vorbis</property>
  <property name="meta.media.0.codec.long_name">Vorbis</property>
  <property name="meta.media.0.codec.bit_rate">160000</property>
  <property name="seekable">1</property>
  <property name="audio_index">0</property>
  <property name="video_index">-1</property>
  <property name="mute_on_pause">1</property>
  <property name="mlt_service">avformat-novalidate</property>
  <property name="kdenlive:folderid">2</property>
  <property name="kdenlive:file_size">314158</property>
  <property name="kdenlive:file_hash">359803adf9e51c4b865f72b3dfec8968</property>
  <property name="global_feed">1</property>
 </producer>
 <producer out="991" title="Anonymous Submission" id="3" in="0">
  <property name="mlt_type">mlt_producer</property>
  <property name="length">00:00:33:02</property>
  <property name="eof">pause</property>
  <property name="resource">/var/www/localhost/image-grid.ou-snippet/docs/videos/add/audio/3.screen-reader.ogg</property>
  <property name="meta.media.nb_streams">1</property>
  <property name="meta.media.0.stream.type">audio</property>
  <property name="meta.media.0.codec.sample_fmt">fltp</property>
  <property name="meta.media.0.codec.sample_rate">44100</property>
  <property name="meta.media.0.codec.channels">2</property>
  <property name="meta.media.0.codec.name">vorbis</property>
  <property name="meta.media.0.codec.long_name">Vorbis</property>
  <property name="meta.media.0.codec.bit_rate">160000</property>
  <property name="seekable">1</property>
  <property name="audio_index">0</property>
  <property name="video_index">-1</property>
  <property name="mute_on_pause">1</property>
  <property name="mlt_service">avformat-novalidate</property>
  <property name="kdenlive:folderid">2</property>
  <property name="kdenlive:file_size">477538</property>
  <property name="kdenlive:file_hash">5d8150616be8299bf4bb73c3ed6909c1</property>
  <property name="global_feed">1</property>
 </producer>
 <producer out="725" title="Anonymous Submission" id="4" in="0">
  <property name="mlt_type">mlt_producer</property>
  <property name="length">00:00:24:06</property>
  <property name="eof">pause</property>
  <property name="resource">/var/www/localhost/image-grid.ou-snippet/docs/videos/add/audio/4.responsive-class.ogg</property>
  <property name="meta.media.nb_streams">1</property>
  <property name="meta.media.0.stream.type">audio</property>
  <property name="meta.media.0.codec.sample_fmt">fltp</property>
  <property name="meta.media.0.codec.sample_rate">44100</property>
  <property name="meta.media.0.codec.channels">2</property>
  <property name="meta.media.0.codec.name">vorbis</property>
  <property name="meta.media.0.codec.long_name">Vorbis</property>
  <property name="meta.media.0.codec.bit_rate">160000</property>
  <property name="seekable">1</property>
  <property name="audio_index">0</property>
  <property name="video_index">-1</property>
  <property name="mute_on_pause">1</property>
  <property name="mlt_service">avformat-novalidate</property>
  <property name="kdenlive:folderid">2</property>
  <property name="kdenlive:file_size">355588</property>
  <property name="kdenlive:file_hash">ae24532fb935fe5b2f8cb022c450e03b</property>
  <property name="global_feed">1</property>
 </producer>
 <producer out="559" title="Anonymous Submission" id="5" in="0">
  <property name="mlt_type">mlt_producer</property>
  <property name="length">00:00:18:20</property>
  <property name="eof">pause</property>
  <property name="resource">/var/www/localhost/image-grid.ou-snippet/docs/videos/add/audio/5.link.ogg</property>
  <property name="meta.media.nb_streams">1</property>
  <property name="meta.media.0.stream.type">audio</property>
  <property name="meta.media.0.codec.sample_fmt">fltp</property>
  <property name="meta.media.0.codec.sample_rate">44100</property>
  <property name="meta.media.0.codec.channels">2</property>
  <property name="meta.media.0.codec.name">vorbis</property>
  <property name="meta.media.0.codec.long_name">Vorbis</property>
  <property name="meta.media.0.codec.bit_rate">160000</property>
  <property name="seekable">1</property>
  <property name="audio_index">0</property>
  <property name="video_index">-1</property>
  <property name="mute_on_pause">1</property>
  <property name="mlt_service">avformat-novalidate</property>
  <property name="kdenlive:folderid">2</property>
  <property name="kdenlive:file_size">284510</property>
  <property name="kdenlive:file_hash">7e397f377dda6dd5472046e3cc29db27</property>
  <property name="global_feed">1</property>
 </producer>
 <producer out="931" title="Anonymous Submission" id="6" in="0">
  <property name="mlt_type">mlt_producer</property>
  <property name="length">00:00:31:02</property>
  <property name="eof">pause</property>
  <property name="resource">/var/www/localhost/image-grid.ou-snippet/docs/videos/add/audio/6.save-preview.ogg</property>
  <property name="meta.media.nb_streams">1</property>
  <property name="meta.media.0.stream.type">audio</property>
  <property name="meta.media.0.codec.sample_fmt">fltp</property>
  <property name="meta.media.0.codec.sample_rate">44100</property>
  <property name="meta.media.0.codec.channels">2</property>
  <property name="meta.media.0.codec.name">vorbis</property>
  <property name="meta.media.0.codec.long_name">Vorbis</property>
  <property name="meta.media.0.codec.bit_rate">160000</property>
  <property name="seekable">1</property>
  <property name="audio_index">0</property>
  <property name="video_index">-1</property>
  <property name="mute_on_pause">1</property>
  <property name="mlt_service">avformat-novalidate</property>
  <property name="kdenlive:folderid">2</property>
  <property name="kdenlive:file_size">464119</property>
  <property name="kdenlive:file_hash">6a700bf06d22917a1f11a82fb4fdc96b</property>
  <property name="global_feed">1</property>
 </producer>
 <producer out="563" title="Anonymous Submission" id="7" in="0">
  <property name="mlt_type">mlt_producer</property>
  <property name="length">00:00:18:24</property>
  <property name="eof">pause</property>
  <property name="resource">/var/www/localhost/image-grid.ou-snippet/docs/videos/add/audio/7.publish.ogg</property>
  <property name="meta.media.nb_streams">1</property>
  <property name="meta.media.0.stream.type">audio</property>
  <property name="meta.media.0.codec.sample_fmt">fltp</property>
  <property name="meta.media.0.codec.sample_rate">44100</property>
  <property name="meta.media.0.codec.channels">2</property>
  <property name="meta.media.0.codec.name">vorbis</property>
  <property name="meta.media.0.codec.long_name">Vorbis</property>
  <property name="meta.media.0.codec.bit_rate">160000</property>
  <property name="seekable">1</property>
  <property name="audio_index">0</property>
  <property name="video_index">-1</property>
  <property name="mute_on_pause">1</property>
  <property name="mlt_service">avformat-novalidate</property>
  <property name="kdenlive:folderid">2</property>
  <property name="kdenlive:file_size">286721</property>
  <property name="kdenlive:file_hash">2255c250dbd83bea0e67b62073a95af3</property>
  <property name="global_feed">1</property>
 </producer>
 <producer out="2849" id="8" in="0">
  <property name="mlt_type">producer</property>
  <property name="length">00:01:35:00</property>
  <property name="eof">pause</property>
  <property name="resource">/var/www/localhost/image-grid.ou-snippet/docs/videos/add/raw/screencast.mp4</property>
  <property name="meta.media.nb_streams">1</property>
  <property name="meta.media.0.stream.type">video</property>
  <property name="meta.media.0.stream.frame_rate">15</property>
  <property name="meta.media.0.stream.sample_aspect_ratio">0</property>
  <property name="meta.media.0.codec.width">1920</property>
  <property name="meta.media.0.codec.height">1080</property>
  <property name="meta.media.0.codec.rotate">0</property>
  <property name="meta.media.0.codec.frame_rate">15</property>
  <property name="meta.media.0.codec.pix_fmt">yuv444p</property>
  <property name="meta.media.0.codec.sample_aspect_ratio">1</property>
  <property name="meta.media.0.codec.colorspace">709</property>
  <property name="meta.media.0.codec.name">h264</property>
  <property name="meta.media.0.codec.long_name">H.264 / AVC / MPEG-4 AVC / MPEG-4 part 10</property>
  <property name="meta.media.0.codec.bit_rate">1977994</property>
  <property name="meta.attr.0.stream.creation_time.markup">2016-08-02 19:49:33</property>
  <property name="meta.attr.0.stream.language.markup">eng</property>
  <property name="meta.attr.0.stream.handler_name.markup">VideoHandler</property>
  <property name="meta.attr.major_brand.markup">mp42</property>
  <property name="meta.attr.minor_version.markup">0</property>
  <property name="meta.attr.compatible_brands.markup">mp42mp41isomiso2</property>
  <property name="meta.attr.creation_time.markup">2016-08-02 19:49:33</property>
  <property name="meta.attr.encoder.markup">x264</property>
  <property name="seekable">1</property>
  <property name="meta.media.sample_aspect_num">1</property>
  <property name="meta.media.sample_aspect_den">1</property>
  <property name="aspect_ratio">1</property>
  <property name="audio_index">-1</property>
  <property name="video_index">0</property>
  <property name="mute_on_pause">1</property>
  <property name="mlt_service">avformat-novalidate</property>
  <property name="meta.media.frame_rate_num">15</property>
  <property name="meta.media.frame_rate_den">1</property>
  <property name="meta.media.colorspace">709</property>
  <property name="meta.media.color_trc">2</property>
  <property name="meta.media.width">1920</property>
  <property name="meta.media.height">1080</property>
  <property name="meta.media.top_field_first">0</property>
  <property name="meta.media.progressive">1</property>
  <property name="kdenlive:file_size">23500970</property>
  <property name="kdenlive:file_hash">0295becd96c226af519117df19f4519a</property>
 </producer>
 <producer out="404" id="9" in="0">
  <property name="mlt_type">producer</property>
  <property name="length">405</property>
  <property name="eof">pause</property>
  <property name="resource"/>
  <property name="progressive">1</property>
  <property name="aspect_ratio">1</property>
  <property name="seekable">1</property>
  <property name="mlt_service">kdenlivetitle</property>
  <property name="kdenlive:clipname">Title clip</property>
  <property name="kdenlive:folderid">1</property>
  <property name="xmldata">&lt;kdenlivetitle height="720" out="150" duration="150" LC_NUMERIC="en_US.UTF-8" width="1280">
 &lt;item type="QGraphicsTextItem" z-index="1">
  &lt;position x="8.69565" y="636.304">
   &lt;transform>1,0,0,0,1,0,0,0,1&lt;/transform>
  &lt;/position>
  &lt;content font-color="115,15,21,255" font="Ubuntu" font-outline-color="255,255,255,255" font-outline="2.5" font-pixel-size="60" font-weight="50" font-italic="0" font-underline="0">1: Add Row&lt;/content>
 &lt;/item>
 &lt;item type="QGraphicsRectItem" z-index="0">
  &lt;position x="8.69565" y="636.957">
   &lt;transform zoom="100">1,0,0,0,1,0,0,0,1&lt;/transform>
  &lt;/position>
  &lt;content rect="0,0,315.217,75" penwidth="0" pencolor="0,0,0,255" brushcolor="255,255,255,255"/>
 &lt;/item>
 &lt;startviewport rect="0,0,1280,720"/>
 &lt;endviewport rect="0,0,1280,720"/>
 &lt;background color="0,0,0,0"/>
&lt;/kdenlivetitle>
</property>
  <property name="force_reload">0</property>
  <property name="meta.media.width">1280</property>
  <property name="meta.media.height">720</property>
  <property name="kdenlive:file_hash">dcc7124e8529638ca1cfa86daef67585</property>
 </producer>
 <producer out="417" id="10" in="0">
  <property name="mlt_type">producer</property>
  <property name="length">418</property>
  <property name="eof">pause</property>
  <property name="resource"/>
  <property name="progressive">1</property>
  <property name="aspect_ratio">1</property>
  <property name="seekable">1</property>
  <property name="mlt_service">kdenlivetitle</property>
  <property name="kdenlive:clipname">Title clip</property>
  <property name="kdenlive:folderid">1</property>
  <property name="xmldata">&lt;kdenlivetitle height="720" out="150" duration="150" LC_NUMERIC="en_US.UTF-8" width="1280">
 &lt;item type="QGraphicsTextItem" z-index="1">
  &lt;position x="106.522" y="633.043">
   &lt;transform>1,0,0,0,1,0,0,0,1&lt;/transform>
  &lt;/position>
  &lt;content font-color="115,15,21,255" font="Ubuntu" font-outline-color="255,255,255,255" font-outline="2.5" font-pixel-size="60" font-weight="50" font-italic="0" font-underline="0">2: Insert Image&lt;/content>
 &lt;/item>
 &lt;item type="QGraphicsRectItem" z-index="0">
  &lt;position x="106.522" y="642.391">
   &lt;transform zoom="100">1,0,0,0,1,0,0,0,1&lt;/transform>
  &lt;/position>
  &lt;content rect="0,0,409.783,67.3913" penwidth="0" pencolor="0,0,0,255" brushcolor="255,255,255,255"/>
 &lt;/item>
 &lt;startviewport rect="0,0,1280,720"/>
 &lt;endviewport rect="0,0,1280,720"/>
 &lt;background color="0,0,0,0"/>
&lt;/kdenlivetitle>
</property>
  <property name="force_reload">0</property>
  <property name="meta.media.width">1280</property>
  <property name="meta.media.height">720</property>
  <property name="kdenlive:file_hash">e24f8091c9f8e864fd1539ce8bc6c947</property>
 </producer>
 <producer out="1775" id="11" in="0">
  <property name="mlt_type">producer</property>
  <property name="length">1776</property>
  <property name="eof">pause</property>
  <property name="resource"/>
  <property name="progressive">1</property>
  <property name="aspect_ratio">1</property>
  <property name="seekable">1</property>
  <property name="mlt_service">kdenlivetitle</property>
  <property name="kdenlive:clipname">Title clip</property>
  <property name="kdenlive:folderid">1</property>
  <property name="xmldata">&lt;kdenlivetitle height="720" out="150" duration="150" LC_NUMERIC="en_US.UTF-8" width="1280">
 &lt;item type="QGraphicsTextItem" z-index="1">
  &lt;position x="254.348" y="634.13">
   &lt;transform>1,0,0,0,1,0,0,0,1&lt;/transform>
  &lt;/position>
  &lt;content font-color="115,15,21,255" font="Ubuntu" font-outline-color="255,255,255,255" font-outline="2.5" font-pixel-size="60" font-weight="50" font-italic="0" font-underline="0">3: Apply Attributes&lt;/content>
 &lt;/item>
 &lt;item type="QGraphicsRectItem" z-index="0">
  &lt;position x="253.261" y="638.043">
   &lt;transform zoom="100">1,0,0,0,1,0,0,0,1&lt;/transform>
  &lt;/position>
  &lt;content rect="0,0,521.739,72.8261" penwidth="0" pencolor="0,0,0,255" brushcolor="255,255,255,255"/>
 &lt;/item>
 &lt;startviewport rect="0,0,1280,720"/>
 &lt;endviewport rect="0,0,1280,720"/>
 &lt;background color="0,0,0,0"/>
&lt;/kdenlivetitle>
</property>
  <property name="force_reload">0</property>
  <property name="meta.media.width">1280</property>
  <property name="meta.media.height">720</property>
  <property name="kdenlive:file_hash">b3d50d7a0e300a57bc5f5c75d9f01b61</property>
 </producer>
 <producer out="295" id="12" in="0">
  <property name="mlt_type">producer</property>
  <property name="length">296</property>
  <property name="eof">pause</property>
  <property name="resource"/>
  <property name="progressive">1</property>
  <property name="aspect_ratio">1</property>
  <property name="seekable">1</property>
  <property name="mlt_service">kdenlivetitle</property>
  <property name="kdenlive:clipname">Title clip</property>
  <property name="kdenlive:folderid">1</property>
  <property name="xmldata">&lt;kdenlivetitle height="720" out="150" duration="150" LC_NUMERIC="en_US.UTF-8" width="1280">
 &lt;item type="QGraphicsTextItem" z-index="1">
  &lt;position x="606.522" y="637.391">
   &lt;transform>1,0,0,0,1,0,0,0,1&lt;/transform>
  &lt;/position>
  &lt;content font-color="115,15,21,255" font="Ubuntu" font-outline-color="255,255,255,255" font-outline="2.5" font-pixel-size="60" font-weight="50" font-italic="0" font-underline="0">4: Link&lt;/content>
 &lt;/item>
 &lt;item type="QGraphicsRectItem" z-index="0">
  &lt;position x="605.435" y="644.565">
   &lt;transform zoom="100">1,0,0,0,1,0,0,0,1&lt;/transform>
  &lt;/position>
  &lt;content rect="0,0,185.87,68.4783" penwidth="0" pencolor="0,0,0,255" brushcolor="255,255,255,255"/>
 &lt;/item>
 &lt;startviewport rect="0,0,1280,720"/>
 &lt;endviewport rect="0,0,1280,720"/>
 &lt;background color="0,0,0,0"/>
&lt;/kdenlivetitle>
</property>
  <property name="force_reload">0</property>
  <property name="meta.media.width">1280</property>
  <property name="meta.media.height">720</property>
  <property name="kdenlive:file_hash">0a2e57e27ac5ad399a49ec225872f0ef</property>
 </producer>
 <producer out="882" id="13" in="0">
  <property name="mlt_type">producer</property>
  <property name="length">883</property>
  <property name="eof">pause</property>
  <property name="resource"/>
  <property name="progressive">1</property>
  <property name="aspect_ratio">1</property>
  <property name="seekable">1</property>
  <property name="mlt_service">kdenlivetitle</property>
  <property name="kdenlive:clipname">Title clip</property>
  <property name="kdenlive:folderid">1</property>
  <property name="xmldata">&lt;kdenlivetitle height="720" out="150" duration="150" LC_NUMERIC="en_US.UTF-8" width="1280">
 &lt;item type="QGraphicsTextItem" z-index="1">
  &lt;position x="789.13" y="639.565">
   &lt;transform>1,0,0,0,1,0,0,0,1&lt;/transform>
  &lt;/position>
  &lt;content font-color="115,15,21,255" font="Ubuntu" font-outline-color="255,255,255,255" font-outline="2.5" font-pixel-size="60" font-weight="50" font-italic="0" font-underline="0">5: Save &amp;amp; Preview&lt;/content>
 &lt;/item>
 &lt;item type="QGraphicsRectItem" z-index="0">
  &lt;position x="789.13" y="646.739">
   &lt;transform zoom="100">1,0,0,0,1,0,0,0,1&lt;/transform>
  &lt;/position>
  &lt;content rect="0,0,482.609,68.4783" penwidth="0" pencolor="0,0,0,255" brushcolor="255,255,255,255"/>
 &lt;/item>
 &lt;startviewport rect="0,0,1280,720"/>
 &lt;endviewport rect="0,0,1280,720"/>
 &lt;background color="0,0,0,0"/>
&lt;/kdenlivetitle>
</property>
  <property name="force_reload">0</property>
  <property name="meta.media.width">1280</property>
  <property name="meta.media.height">720</property>
  <property name="kdenlive:file_hash">4b9dcc7701959531ffb865dabbc42295</property>
 </producer>
 <producer out="564" id="14" in="0">
  <property name="mlt_type">producer</property>
  <property name="length">565</property>
  <property name="eof">pause</property>
  <property name="resource"/>
  <property name="progressive">1</property>
  <property name="aspect_ratio">1</property>
  <property name="seekable">1</property>
  <property name="mlt_service">kdenlivetitle</property>
  <property name="kdenlive:clipname">Title clip</property>
  <property name="kdenlive:folderid">1</property>
  <property name="xmldata">&lt;kdenlivetitle height="720" out="150" duration="150" LC_NUMERIC="en_US.UTF-8" width="1280">
 &lt;item type="QGraphicsTextItem" z-index="1">
  &lt;position x="1002.17" y="637.391">
   &lt;transform>1,0,0,0,1,0,0,0,1&lt;/transform>
  &lt;/position>
  &lt;content font-color="115,15,21,255" font="Ubuntu" font-outline-color="255,255,255,255" font-outline="2.5" font-pixel-size="60" font-weight="50" font-italic="0" font-underline="0">6: Publish&lt;/content>
 &lt;/item>
 &lt;item type="QGraphicsRectItem" z-index="0">
  &lt;position x="996.739" y="641.304">
   &lt;transform zoom="100">1,0,0,0,1,0,0,0,1&lt;/transform>
  &lt;/position>
  &lt;content rect="0,0,275,70.6522" penwidth="0" pencolor="0,0,0,255" brushcolor="255,255,255,255"/>
 &lt;/item>
 &lt;startviewport rect="0,0,1280,720"/>
 &lt;endviewport rect="0,0,1280,720"/>
 &lt;background color="0,0,0,0"/>
&lt;/kdenlivetitle>
</property>
  <property name="force_reload">0</property>
  <property name="meta.media.width">1280</property>
  <property name="meta.media.height">720</property>
  <property name="kdenlive:file_hash">dc02a2c33fe449edbef6efc864db3174</property>
 </producer>
 <playlist kdenlive:customeffects="&lt;customeffects/>&#xa;" id="main bin">
  <property name="kdenlive:docproperties.documentid">1470323724383</property>
  <property name="kdenlive:docproperties.enableproxy">0</property>
  <property name="kdenlive:docproperties.generateimageproxy">0</property>
  <property name="kdenlive:docproperties.generateproxy">0</property>
  <property name="kdenlive:docproperties.kdenliveversion">15.12.3</property>
  <property name="kdenlive:docproperties.position">0</property>
  <property name="kdenlive:docproperties.profile">atsc_720p_30</property>
  <property name="kdenlive:docproperties.projectfolder">kdenlive</property>
  <property name="kdenlive:docproperties.proxyextension">mpg</property>
  <property name="kdenlive:docproperties.proxyimageminsize">2000</property>
  <property name="kdenlive:docproperties.proxyminsize">1000</property>
  <property name="kdenlive:docproperties.proxyparams">-s 640x480 -g 5 -qscale 6 -ab 128k -vcodec mpeg2video -acodec mp2</property>
  <property name="kdenlive:docproperties.version">0.91</property>
  <property name="kdenlive:docproperties.verticalzoom">1</property>
  <property name="kdenlive:docproperties.zonein">0</property>
  <property name="kdenlive:docproperties.zoneout">100</property>
  <property name="kdenlive:docproperties.zoom">7</property>
  <property name="kdenlive:documentnotes"/>
  <property name="kdenlive:clipgroups">&lt;groups/>
</property>
  <property name="kdenlive:folder.-1.1">titles</property>
  <property name="kdenlive:folder.-1.2">audio</property>
  <property name="kdenlive:docproperties.renderaudiobitrate">160</property>
  <property name="kdenlive:docproperties.renderbitrate">20</property>
  <property name="kdenlive:docproperties.rendercategory">MP4</property>
  <property name="kdenlive:docproperties.renderendguide">-1</property>
  <property name="kdenlive:docproperties.renderexportaudio">0</property>
  <property name="kdenlive:docproperties.renderguide">0</property>
  <property name="kdenlive:docproperties.renderplay">0</property>
  <property name="kdenlive:docproperties.renderprofile">H.264/AAC fast</property>
  <property name="kdenlive:docproperties.renderratio">1</property>
  <property name="kdenlive:docproperties.renderrescale">0</property>
  <property name="kdenlive:docproperties.renderrescaleheight">180</property>
  <property name="kdenlive:docproperties.renderrescalewidth">320</property>
  <property name="kdenlive:docproperties.renderscanning">0</property>
  <property name="kdenlive:docproperties.renderstartguide">-1</property>
  <property name="kdenlive:docproperties.rendertcoverlay">0</property>
  <property name="kdenlive:docproperties.rendertctype">0</property>
  <property name="kdenlive:docproperties.rendertwopass">0</property>
  <property name="kdenlive:docproperties.renderurl">/var/www/localhost/image-grid.ou-snippet/docs/videos/add/add.mp4</property>
  <property name="kdenlive:docproperties.renderzone">0</property>
  <property name="xml_retain">1</property>
  <entry out="498" producer="1" in="0"/>
  <entry out="637" producer="2" in="0"/>
  <entry out="991" producer="3" in="0"/>
  <entry out="725" producer="4" in="0"/>
  <entry out="559" producer="5" in="0"/>
  <entry out="931" producer="6" in="0"/>
  <entry out="563" producer="7" in="0"/>
  <entry out="2849" producer="8" in="0"/>
  <entry out="149" producer="9" in="0"/>
  <entry out="149" producer="10" in="0"/>
  <entry out="149" producer="11" in="0"/>
  <entry out="149" producer="12" in="0"/>
  <entry out="149" producer="13" in="0"/>
  <entry out="149" producer="14" in="0"/>
 </playlist>
 <producer out="500" id="black" in="0">
  <property name="mlt_type">producer</property>
  <property name="length">15000</property>
  <property name="eof">pause</property>
  <property name="resource">black</property>
  <property name="aspect_ratio">0</property>
  <property name="mlt_service">colour</property>
 </producer>
 <playlist id="black_track">
  <entry out="4715" producer="black" in="0"/>
 </playlist>
 <producer out="498" title="Anonymous Submission" id="1_playlist2" in="0">
  <property name="mlt_type">producer</property>
  <property name="length">00:00:16:19</property>
  <property name="eof">pause</property>
  <property name="resource">/var/www/localhost/image-grid.ou-snippet/docs/videos/add/audio/1.row.ogg</property>
  <property name="audio_index">0</property>
  <property name="video_index">-1</property>
  <property name="mute_on_pause">1</property>
  <property name="mlt_service">avformat-novalidate</property>
  <property name="seekable">1</property>
  <property name="kdenlive:folderid">2</property>
  <property name="kdenlive:file_size">258109</property>
  <property name="kdenlive:file_hash">232886c9110de4ad8e20921ecf5d7d15</property>
  <property name="global_feed">1</property>
  <property name="xml">was here</property>
  <property name="meta.media.nb_streams">1</property>
  <property name="meta.media.0.stream.type">audio</property>
  <property name="meta.media.0.codec.sample_fmt">fltp</property>
  <property name="meta.media.0.codec.sample_rate">44100</property>
  <property name="meta.media.0.codec.channels">2</property>
  <property name="meta.media.0.codec.name">vorbis</property>
  <property name="meta.media.0.codec.long_name">Vorbis</property>
  <property name="meta.media.0.codec.bit_rate">160000</property>
 </producer>
 <producer out="637" title="Anonymous Submission" id="2_playlist2" in="0">
  <property name="mlt_type">producer</property>
  <property name="length">00:00:21:08</property>
  <property name="eof">pause</property>
  <property name="resource">/var/www/localhost/image-grid.ou-snippet/docs/videos/add/audio/2.image.ogg</property>
  <property name="audio_index">0</property>
  <property name="video_index">-1</property>
  <property name="mute_on_pause">1</property>
  <property name="mlt_service">avformat-novalidate</property>
  <property name="seekable">1</property>
  <property name="kdenlive:folderid">2</property>
  <property name="kdenlive:file_size">314158</property>
  <property name="kdenlive:file_hash">359803adf9e51c4b865f72b3dfec8968</property>
  <property name="global_feed">1</property>
  <property name="xml">was here</property>
  <property name="meta.media.nb_streams">1</property>
  <property name="meta.media.0.stream.type">audio</property>
  <property name="meta.media.0.codec.sample_fmt">fltp</property>
  <property name="meta.media.0.codec.sample_rate">44100</property>
  <property name="meta.media.0.codec.channels">2</property>
  <property name="meta.media.0.codec.name">vorbis</property>
  <property name="meta.media.0.codec.long_name">Vorbis</property>
  <property name="meta.media.0.codec.bit_rate">160000</property>
 </producer>
 <producer out="991" title="Anonymous Submission" id="3_playlist2" in="0">
  <property name="mlt_type">producer</property>
  <property name="length">00:00:33:02</property>
  <property name="eof">pause</property>
  <property name="resource">/var/www/localhost/image-grid.ou-snippet/docs/videos/add/audio/3.screen-reader.ogg</property>
  <property name="audio_index">0</property>
  <property name="video_index">-1</property>
  <property name="mute_on_pause">1</property>
  <property name="mlt_service">avformat-novalidate</property>
  <property name="seekable">1</property>
  <property name="kdenlive:folderid">2</property>
  <property name="kdenlive:file_size">477538</property>
  <property name="kdenlive:file_hash">5d8150616be8299bf4bb73c3ed6909c1</property>
  <property name="global_feed">1</property>
  <property name="xml">was here</property>
  <property name="meta.media.nb_streams">1</property>
  <property name="meta.media.0.stream.type">audio</property>
  <property name="meta.media.0.codec.sample_fmt">fltp</property>
  <property name="meta.media.0.codec.sample_rate">44100</property>
  <property name="meta.media.0.codec.channels">2</property>
  <property name="meta.media.0.codec.name">vorbis</property>
  <property name="meta.media.0.codec.long_name">Vorbis</property>
  <property name="meta.media.0.codec.bit_rate">160000</property>
 </producer>
 <producer out="725" title="Anonymous Submission" id="4_playlist2" in="0">
  <property name="mlt_type">producer</property>
  <property name="length">00:00:24:06</property>
  <property name="eof">pause</property>
  <property name="resource">/var/www/localhost/image-grid.ou-snippet/docs/videos/add/audio/4.responsive-class.ogg</property>
  <property name="audio_index">0</property>
  <property name="video_index">-1</property>
  <property name="mute_on_pause">1</property>
  <property name="mlt_service">avformat-novalidate</property>
  <property name="seekable">1</property>
  <property name="kdenlive:folderid">2</property>
  <property name="kdenlive:file_size">355588</property>
  <property name="kdenlive:file_hash">ae24532fb935fe5b2f8cb022c450e03b</property>
  <property name="global_feed">1</property>
  <property name="xml">was here</property>
  <property name="meta.media.nb_streams">1</property>
  <property name="meta.media.0.stream.type">audio</property>
  <property name="meta.media.0.codec.sample_fmt">fltp</property>
  <property name="meta.media.0.codec.sample_rate">44100</property>
  <property name="meta.media.0.codec.channels">2</property>
  <property name="meta.media.0.codec.name">vorbis</property>
  <property name="meta.media.0.codec.long_name">Vorbis</property>
  <property name="meta.media.0.codec.bit_rate">160000</property>
 </producer>
 <producer out="559" title="Anonymous Submission" id="5_playlist2" in="0">
  <property name="mlt_type">producer</property>
  <property name="length">00:00:18:20</property>
  <property name="eof">pause</property>
  <property name="resource">/var/www/localhost/image-grid.ou-snippet/docs/videos/add/audio/5.link.ogg</property>
  <property name="audio_index">0</property>
  <property name="video_index">-1</property>
  <property name="mute_on_pause">1</property>
  <property name="mlt_service">avformat-novalidate</property>
  <property name="seekable">1</property>
  <property name="kdenlive:folderid">2</property>
  <property name="kdenlive:file_size">284510</property>
  <property name="kdenlive:file_hash">7e397f377dda6dd5472046e3cc29db27</property>
  <property name="global_feed">1</property>
  <property name="xml">was here</property>
  <property name="meta.media.nb_streams">1</property>
  <property name="meta.media.0.stream.type">audio</property>
  <property name="meta.media.0.codec.sample_fmt">fltp</property>
  <property name="meta.media.0.codec.sample_rate">44100</property>
  <property name="meta.media.0.codec.channels">2</property>
  <property name="meta.media.0.codec.name">vorbis</property>
  <property name="meta.media.0.codec.long_name">Vorbis</property>
  <property name="meta.media.0.codec.bit_rate">160000</property>
 </producer>
 <producer out="931" title="Anonymous Submission" id="6_playlist2" in="0">
  <property name="mlt_type">producer</property>
  <property name="length">00:00:31:02</property>
  <property name="eof">pause</property>
  <property name="resource">/var/www/localhost/image-grid.ou-snippet/docs/videos/add/audio/6.save-preview.ogg</property>
  <property name="audio_index">0</property>
  <property name="video_index">-1</property>
  <property name="mute_on_pause">1</property>
  <property name="mlt_service">avformat-novalidate</property>
  <property name="seekable">1</property>
  <property name="kdenlive:folderid">2</property>
  <property name="kdenlive:file_size">464119</property>
  <property name="kdenlive:file_hash">6a700bf06d22917a1f11a82fb4fdc96b</property>
  <property name="global_feed">1</property>
  <property name="xml">was here</property>
  <property name="meta.media.nb_streams">1</property>
  <property name="meta.media.0.stream.type">audio</property>
  <property name="meta.media.0.codec.sample_fmt">fltp</property>
  <property name="meta.media.0.codec.sample_rate">44100</property>
  <property name="meta.media.0.codec.channels">2</property>
  <property name="meta.media.0.codec.name">vorbis</property>
  <property name="meta.media.0.codec.long_name">Vorbis</property>
  <property name="meta.media.0.codec.bit_rate">160000</property>
 </producer>
 <producer out="563" title="Anonymous Submission" id="7_playlist2" in="0">
  <property name="mlt_type">producer</property>
  <property name="length">00:00:18:24</property>
  <property name="eof">pause</property>
  <property name="resource">/var/www/localhost/image-grid.ou-snippet/docs/videos/add/audio/7.publish.ogg</property>
  <property name="audio_index">0</property>
  <property name="video_index">-1</property>
  <property name="mute_on_pause">1</property>
  <property name="mlt_service">avformat-novalidate</property>
  <property name="seekable">1</property>
  <property name="kdenlive:folderid">2</property>
  <property name="kdenlive:file_size">286721</property>
  <property name="kdenlive:file_hash">2255c250dbd83bea0e67b62073a95af3</property>
  <property name="global_feed">1</property>
  <property name="xml">was here</property>
  <property name="meta.media.nb_streams">1</property>
  <property name="meta.media.0.stream.type">audio</property>
  <property name="meta.media.0.codec.sample_fmt">fltp</property>
  <property name="meta.media.0.codec.sample_rate">44100</property>
  <property name="meta.media.0.codec.channels">2</property>
  <property name="meta.media.0.codec.name">vorbis</property>
  <property name="meta.media.0.codec.long_name">Vorbis</property>
  <property name="meta.media.0.codec.bit_rate">160000</property>
 </producer>
 <playlist id="playlist2">
  <property name="kdenlive:audio_track">1</property>
  <property name="kdenlive:track_name">Audio 1</property>
  <entry out="444" producer="1_playlist2" in="41">
   <filter id="gain">
    <property name="window">75</property>
    <property name="max_gain">20dB</property>
    <property name="mlt_type">filter</property>
    <property name="mlt_service">volume</property>
    <property name="kdenlive_id">gain</property>
    <property name="tag">volume</property>
    <property name="kdenlive_ix">1</property>
    <property name="gain">10</property>
    <property name="kdenlive_info"/>
   </filter>
   <filter id="filter0">
    <property name="window">75</property>
    <property name="max_gain">20dB</property>
    <property name="mlt_type">filter</property>
    <property name="mlt_service">volume</property>
    <property name="kdenlive_id">gain</property>
    <property name="tag">volume</property>
    <property name="kdenlive_ix">2</property>
    <property name="gain">1</property>
   </filter>
  </entry>
  <entry out="592" producer="2_playlist2" in="0">
   <filter id="filter1">
    <property name="window">75</property>
    <property name="max_gain">20dB</property>
    <property name="mlt_type">filter</property>
    <property name="mlt_service">volume</property>
    <property name="kdenlive_id">gain</property>
    <property name="tag">volume</property>
    <property name="kdenlive_ix">1</property>
    <property name="gain">10</property>
    <property name="kdenlive_info"/>
   </filter>
   <filter id="filter2">
    <property name="window">75</property>
    <property name="max_gain">20dB</property>
    <property name="mlt_type">filter</property>
    <property name="mlt_service">volume</property>
    <property name="kdenlive_id">gain</property>
    <property name="tag">volume</property>
    <property name="kdenlive_ix">2</property>
    <property name="gain">1</property>
   </filter>
  </entry>
  <entry out="991" producer="3_playlist2" in="0">
   <filter id="filter3">
    <property name="window">75</property>
    <property name="max_gain">20dB</property>
    <property name="mlt_type">filter</property>
    <property name="mlt_service">volume</property>
    <property name="kdenlive_id">gain</property>
    <property name="tag">volume</property>
    <property name="kdenlive_ix">1</property>
    <property name="gain">10</property>
    <property name="kdenlive_info"/>
   </filter>
   <filter id="filter4">
    <property name="window">75</property>
    <property name="max_gain">20dB</property>
    <property name="mlt_type">filter</property>
    <property name="mlt_service">volume</property>
    <property name="kdenlive_id">gain</property>
    <property name="tag">volume</property>
    <property name="kdenlive_ix">2</property>
    <property name="gain">1</property>
   </filter>
  </entry>
  <entry out="725" producer="4_playlist2" in="50">
   <filter id="filter5">
    <property name="window">75</property>
    <property name="max_gain">20dB</property>
    <property name="mlt_type">filter</property>
    <property name="mlt_service">volume</property>
    <property name="kdenlive_id">gain</property>
    <property name="tag">volume</property>
    <property name="kdenlive_ix">1</property>
    <property name="gain">10</property>
    <property name="kdenlive_info"/>
   </filter>
   <filter id="filter6">
    <property name="window">75</property>
    <property name="max_gain">20dB</property>
    <property name="mlt_type">filter</property>
    <property name="mlt_service">volume</property>
    <property name="kdenlive_id">gain</property>
    <property name="tag">volume</property>
    <property name="kdenlive_ix">2</property>
    <property name="gain">1</property>
   </filter>
  </entry>
  <entry out="511" producer="5_playlist2" in="0">
   <filter id="filter7">
    <property name="window">75</property>
    <property name="max_gain">20dB</property>
    <property name="mlt_type">filter</property>
    <property name="mlt_service">volume</property>
    <property name="kdenlive_id">gain</property>
    <property name="tag">volume</property>
    <property name="kdenlive_ix">1</property>
    <property name="gain">10</property>
    <property name="kdenlive_info"/>
   </filter>
  </entry>
  <entry out="878" producer="6_playlist2" in="0">
   <filter id="filter8">
    <property name="window">75</property>
    <property name="max_gain">20dB</property>
    <property name="mlt_type">filter</property>
    <property name="mlt_service">volume</property>
    <property name="kdenlive_id">gain</property>
    <property name="tag">volume</property>
    <property name="kdenlive_ix">1</property>
    <property name="gain">10</property>
    <property name="kdenlive_info"/>
   </filter>
   <filter id="filter9">
    <property name="window">75</property>
    <property name="max_gain">20dB</property>
    <property name="mlt_type">filter</property>
    <property name="mlt_service">volume</property>
    <property name="kdenlive_id">gain</property>
    <property name="tag">volume</property>
    <property name="kdenlive_ix">2</property>
    <property name="gain">1</property>
   </filter>
  </entry>
  <blank length="57"/>
  <entry out="563" producer="7_playlist2" in="0">
   <filter id="filter10">
    <property name="window">75</property>
    <property name="max_gain">20dB</property>
    <property name="mlt_type">filter</property>
    <property name="mlt_service">volume</property>
    <property name="kdenlive_id">gain</property>
    <property name="tag">volume</property>
    <property name="kdenlive_ix">1</property>
    <property name="gain">10</property>
    <property name="kdenlive_info"/>
   </filter>
  </entry>
 </playlist>
 <playlist id="playlist4">
  <property name="kdenlive:track_name">Video 2</property>
  <property name="kdenlive:locked_track">0</property>
  <property name="kdenlive:composite">1</property>
  <entry out="403" producer="8" in="0">
   <filter id="freeze">
    <property name="frame">338</property>
    <property name="freeze_after">1</property>
    <property name="freeze_before">0</property>
    <property name="mlt_type">filter</property>
    <property name="mlt_service">freeze</property>
    <property name="kdenlive_id">freeze</property>
    <property name="tag">freeze</property>
    <property name="kdenlive_ix">1</property>
    <property name="kdenlive_info"/>
   </filter>
  </entry>
  <entry out="1923" producer="8" in="339">
   <filter id="filter11">
    <property name="frame">581</property>
    <property name="freeze_after">1</property>
    <property name="freeze_before">0</property>
    <property name="mlt_type">filter</property>
    <property name="mlt_service">freeze</property>
    <property name="kdenlive_id">freeze</property>
    <property name="tag">freeze</property>
    <property name="kdenlive_ix">1</property>
    <property name="kdenlive_info"/>
   </filter>
  </entry>
  <entry out="1593" producer="8" in="918">
   <filter id="filter12">
    <property name="frame">90</property>
    <property name="freeze_after">1</property>
    <property name="freeze_before">0</property>
    <property name="mlt_type">filter</property>
    <property name="mlt_service">freeze</property>
    <property name="kdenlive_id">freeze</property>
    <property name="tag">freeze</property>
    <property name="kdenlive_ix">1</property>
    <property name="kdenlive_info"/>
   </filter>
  </entry>
  <entry out="2244" producer="8" in="1008">
   <filter id="filter13">
    <property name="frame">1014</property>
    <property name="freeze_after">1</property>
    <property name="freeze_before">0</property>
    <property name="mlt_type">filter</property>
    <property name="mlt_service">freeze</property>
    <property name="kdenlive_id">freeze</property>
    <property name="tag">freeze</property>
    <property name="kdenlive_ix">1</property>
    <property name="kdenlive_info"/>
   </filter>
  </entry>
  <entry out="2849" producer="8" in="2036"/>
 </playlist>
 <playlist id="playlist5">
  <property name="kdenlive:track_name">Video 1</property>
  <property name="kdenlive:locked_track">0</property>
  <property name="kdenlive:composite">1</property>
  <entry out="403" producer="9" in="0"/>
  <blank length="23"/>
  <entry out="416" producer="10" in="23"/>
  <blank length="69"/>
  <entry out="1774" producer="11" in="0"/>
  <blank length="167"/>
  <entry out="294" producer="12" in="0"/>
  <blank length="47"/>
  <entry out="881" producer="13" in="0"/>
  <blank length="57"/>
  <entry out="563" producer="14" in="0"/>
 </playlist>
 <tractor global_feed="1" out="4715" title="Anonymous Submission" id="maintractor" in="0">
  <track producer="black_track"/>
  <track hide="video" producer="playlist2"/>
  <track producer="playlist4"/>
  <track producer="playlist5"/>
  <transition id="transition0">
   <property name="a_track">0</property>
   <property name="b_track">1</property>
   <property name="mlt_type">transition</property>
   <property name="mlt_service">mix</property>
   <property name="always_active">1</property>
   <property name="combine">1</property>
   <property name="internal_added">237</property>
  </transition>
  <transition id="transition1">
   <property name="a_track">0</property>
   <property name="b_track">2</property>
   <property name="mlt_type">transition</property>
   <property name="mlt_service">mix</property>
   <property name="always_active">1</property>
   <property name="combine">1</property>
   <property name="internal_added">237</property>
  </transition>
  <transition id="transition2">
   <property name="a_track">0</property>
   <property name="b_track">3</property>
   <property name="mlt_type">transition</property>
   <property name="mlt_service">mix</property>
   <property name="always_active">1</property>
   <property name="combine">1</property>
   <property name="internal_added">237</property>
  </transition>
  <transition out="403" id="transition3">
   <property name="a_track">2</property>
   <property name="b_track">3</property>
   <property name="distort">0</property>
   <property name="geometry">0/0:100%x100%:100%</property>
   <property name="fill">1</property>
   <property name="mlt_type">transition</property>
   <property name="mlt_service">affine</property>
   <property name="automatic">1</property>
   <property name="force_track">0</property>
   <property name="keyed">1</property>
   <property name="rotate_x">0</property>
   <property name="rotate_y">0</property>
   <property name="rotate_z">0</property>
   <property name="shear_x">0</property>
   <property name="shear_y">0</property>
   <property name="shear_z">0</property>
  </transition>
  <transition out="820" id="transition4" in="427">
   <property name="a_track">2</property>
   <property name="b_track">3</property>
   <property name="distort">0</property>
   <property name="geometry">0/0:100%x100%:100%</property>
   <property name="fill">1</property>
   <property name="mlt_type">transition</property>
   <property name="mlt_service">affine</property>
   <property name="automatic">1</property>
   <property name="force_track">0</property>
   <property name="keyed">1</property>
   <property name="rotate_x">0</property>
   <property name="rotate_y">0</property>
   <property name="rotate_z">0</property>
   <property name="shear_x">0</property>
   <property name="shear_y">0</property>
   <property name="shear_z">0</property>
  </transition>
  <transition out="2664" id="transition5" in="890">
   <property name="a_track">2</property>
   <property name="b_track">3</property>
   <property name="distort">0</property>
   <property name="geometry">0/0:100%x100%:100%</property>
   <property name="fill">1</property>
   <property name="mlt_type">transition</property>
   <property name="mlt_service">affine</property>
   <property name="automatic">1</property>
   <property name="force_track">0</property>
   <property name="keyed">1</property>
   <property name="rotate_x">0</property>
   <property name="rotate_y">0</property>
   <property name="rotate_z">0</property>
   <property name="shear_x">0</property>
   <property name="shear_y">0</property>
   <property name="shear_z">0</property>
  </transition>
  <transition out="3126" id="transition6" in="2832">
   <property name="a_track">2</property>
   <property name="b_track">3</property>
   <property name="distort">0</property>
   <property name="geometry">0/0:100%x100%:100%</property>
   <property name="fill">1</property>
   <property name="mlt_type">transition</property>
   <property name="mlt_service">affine</property>
   <property name="automatic">1</property>
   <property name="force_track">0</property>
   <property name="keyed">1</property>
   <property name="rotate_x">0</property>
   <property name="rotate_y">0</property>
   <property name="rotate_z">0</property>
   <property name="shear_x">0</property>
   <property name="shear_y">0</property>
   <property name="shear_z">0</property>
  </transition>
  <transition out="4055" id="transition7" in="3174">
   <property name="a_track">2</property>
   <property name="b_track">3</property>
   <property name="distort">0</property>
   <property name="geometry">0/0:100%x100%:100%</property>
   <property name="fill">1</property>
   <property name="mlt_type">transition</property>
   <property name="mlt_service">affine</property>
   <property name="automatic">1</property>
   <property name="force_track">0</property>
   <property name="keyed">1</property>
   <property name="rotate_x">0</property>
   <property name="rotate_y">0</property>
   <property name="rotate_z">0</property>
   <property name="shear_x">0</property>
   <property name="shear_y">0</property>
   <property name="shear_z">0</property>
  </transition>
  <transition out="4676" id="transition8" in="4113">
   <property name="a_track">2</property>
   <property name="b_track">3</property>
   <property name="distort">0</property>
   <property name="geometry">0/0:100%x100%:100%</property>
   <property name="fill">1</property>
   <property name="mlt_type">transition</property>
   <property name="mlt_service">affine</property>
   <property name="automatic">1</property>
   <property name="force_track">0</property>
   <property name="keyed">1</property>
   <property name="rotate_x">0</property>
   <property name="rotate_y">0</property>
   <property name="rotate_z">0</property>
   <property name="shear_x">0</property>
   <property name="shear_y">0</property>
   <property name="shear_z">0</property>
  </transition>
  <transition id="transition9">
   <property name="a_track">2</property>
   <property name="b_track">3</property>
   <property name="version">0.9</property>
   <property name="mlt_type">transition</property>
   <property name="mlt_service">frei0r.cairoblend</property>
   <property name="internal_added">237</property>
  </transition>
 </tractor>
</mlt>
